<svg width="278" height="325" viewBox="0 0 278 325" fill="none" xmlns="http://www.w3.org/2000/svg">
<path d="M197.511 235.789L197.317 27.6007L82.0912 200.994L197.511 235.789Z" fill="#D9D9D9" stroke="black" stroke-width="4"/>
<path d="M12.7934 203.982C11.4898 209.385 13.2868 215.553 18.265 222.242C23.2342 228.92 31.2027 235.868 41.665 242.654C62.5735 256.213 93.0578 268.874 128.158 277.343C163.258 285.812 196.162 288.447 220.953 285.914C233.359 284.646 243.619 282.096 251.087 278.419C258.568 274.736 262.98 270.066 264.284 264.664C265.587 259.261 263.79 253.093 258.812 246.403C253.843 239.726 245.874 232.777 235.412 225.992C214.503 212.432 184.019 199.772 148.919 191.302C113.818 182.833 80.9149 180.199 56.1235 182.732C43.7182 183.999 33.4577 186.549 25.9902 190.226C18.509 193.909 14.097 198.579 12.7934 203.982Z" fill="#D9D9D9" stroke="black" stroke-width="4"/>
<path d="M73 264C73 296.524 100.249 323 134 323C167.751 323 195 296.524 195 264C195 231.476 167.751 205 134 205C100.249 205 73 231.476 73 264Z" fill="#D9D9D9" stroke="black" stroke-width="4"/>
<path d="M120.278 236.522C120.278 235.821 120.027 235.22 119.526 234.718C119.024 234.216 118.422 233.965 117.722 233.965C117.021 233.965 116.42 234.216 115.918 234.718C115.416 235.22 115.165 235.821 115.165 236.522C115.165 237.223 115.416 237.824 115.918 238.326C116.42 238.828 117.021 239.079 117.722 239.079C118.186 239.079 118.612 238.961 119 238.724C119.388 238.496 119.701 238.189 119.938 237.8C120.165 237.422 120.278 236.996 120.278 236.522ZM105.562 236.522C105.562 235.821 105.312 235.22 104.81 234.718C104.308 234.216 103.706 233.965 103.006 233.965C102.305 233.965 101.704 234.216 101.202 234.718C100.7 235.22 100.449 235.821 100.449 236.522C100.449 237.223 100.7 237.824 101.202 238.326C101.704 238.828 102.305 239.079 103.006 239.079C103.47 239.079 103.896 238.961 104.284 238.724C104.672 238.496 104.985 238.189 105.222 237.8C105.449 237.422 105.562 236.996 105.562 236.522ZM85.5341 261.231H133.375V258.39H85.5341V261.231Z" fill="black"/>
<path d="M191.704 40.962L85.7438 220.279L180.901 248.966L191.704 40.962Z" fill="#D9D9D9"/>
</svg>
